<svg version="1.0" xmlns="http://www.w3.org/2000/svg"
 width="300.000000pt" height="391.000000pt" viewBox="0 0 300.000000 391.000000"
 preserveAspectRatio="xMidYMid meet">
<metadata>
Created by potrace 1.10, written by Peter Selinger 2001-2011
</metadata>
<g transform="translate(0.000000,391.000000) scale(0.100000,-0.100000)"
fill="#000000" stroke="none">
<path d="M350 1918 l0 -1638 1140 0 1140 0 0 1638 0 1637 -1140 0 -1140 0 0
-1637z m2230 2 l0 -1590 -1090 0 -1090 0 0 1590 0 1590 1090 0 1090 0 0 -1590z"/>
<path d="M1100 2908 l0 -88 -90 0 -90 0 0 -340 0 -340 91 0 91 0 -3 -85 c-2
-47 -3 -85 -3 -85 1 0 39 38 85 85 l83 85 308 0 308 0 0 91 0 92 90 -5 90 -5
0 341 0 341 -480 0 -480 0 0 -87z m920 -253 l0 -300 -70 0 -70 0 0 233 0 232
-372 0 -373 0 3 67 3 68 440 0 439 0 0 -300z m-920 -107 l-1 -233 370 3 371 3
0 -71 0 -70 -293 0 -293 0 -54 -55 c-30 -30 -57 -55 -60 -55 -4 0 -5 25 -2 55
l4 55 -91 0 -91 0 0 300 0 300 70 0 71 0 -1 -232z m740 20 l0 -213 -350 0
-350 0 0 213 0 212 350 0 350 0 0 -212z"/>
<path d="M1170 2565 l0 -175 318 0 317 0 0 175 0 175 -317 0 -318 0 0 -175z
m595 0 l0 -135 -277 0 -278 0 0 135 0 135 278 0 277 0 0 -135z"/>
<path d="M1390 2567 c0 -16 6 -23 20 -23 14 0 20 7 20 23 0 16 -6 23 -20 23
-14 0 -20 -7 -20 -23z"/>
<path d="M1470 2567 c0 -16 6 -23 20 -23 14 0 20 7 20 23 0 16 -6 23 -20 23
-14 0 -20 -7 -20 -23z"/>
<path d="M1550 2567 c0 -16 6 -23 20 -23 14 0 20 7 20 23 0 16 -6 23 -20 23
-14 0 -20 -7 -20 -23z"/>
<path d="M1264 1440 c-29 -12 -54 -49 -54 -81 0 -27 24 -78 84 -174 43 -70 45
-110 6 -110 -21 0 -26 5 -28 33 -3 28 -7 32 -34 32 -30 0 -31 -1 -25 -41 7
-55 34 -81 86 -83 30 0 46 5 61 21 45 49 35 102 -39 212 -54 79 -63 104 -47
126 18 26 50 15 54 -18 3 -23 8 -27 33 -27 23 0 29 4 29 23 0 28 -35 87 -52
87 -7 0 -22 2 -33 5 -11 2 -30 0 -41 -5z"/>
<path d="M1805 1441 c-44 -19 -50 -38 -52 -170 -5 -221 9 -254 100 -249 49 3
53 5 70 40 17 34 18 54 11 189 -5 115 -11 155 -23 170 -18 22 -76 33 -106 20z
m68 -131 c4 -47 6 -119 5 -160 -3 -72 -4 -75 -29 -78 -26 -3 -26 -2 -32 74
-11 123 -8 229 5 242 29 29 43 9 51 -78z"/>
<path d="M2244 1440 c-12 -5 -29 -19 -38 -32 -29 -41 -20 -78 44 -184 66 -109
74 -149 30 -149 -21 0 -26 5 -28 33 -3 28 -7 32 -33 32 -26 0 -29 -3 -29 -34
0 -52 35 -88 88 -90 29 0 47 5 60 20 45 48 35 107 -36 211 -55 81 -64 106 -48
128 18 26 50 15 54 -18 3 -21 9 -27 27 -27 13 0 27 5 30 10 8 13 -12 75 -28
88 -19 15 -70 22 -93 12z"/>
<path d="M620 1230 l0 -210 64 0 c48 0 70 5 87 19 24 19 24 23 24 191 0 168 0
172 -24 191 -17 14 -39 19 -87 19 l-64 0 0 -210z m108 148 c13 -13 18 -262 6
-292 -3 -9 -17 -16 -30 -16 l-24 0 0 160 c0 147 1 160 18 160 10 0 23 -5 30
-12z"/>
<path d="M850 1230 l0 -210 75 0 c73 0 75 1 75 25 0 23 -4 25 -45 25 l-45 0 0
70 0 70 36 0 c33 0 35 2 32 28 -3 23 -7 27 -35 27 l-33 0 0 62 0 63 46 0 c41
0 45 2 42 23 -3 20 -9 22 -75 25 l-73 3 0 -211z"/>
<path d="M1033 1288 c4 -84 6 -179 7 -210 l0 -58 75 0 c73 0 75 1 75 25 0 23
-3 25 -50 25 l-50 0 0 70 0 70 35 0 c33 0 35 2 35 31 0 31 -1 31 -35 26 l-35
-6 0 65 0 64 45 0 c41 0 45 2 45 25 0 24 -2 25 -76 25 l-76 0 5 -152z"/>
<path d="M1530 1230 l0 -210 69 0 c63 0 71 2 90 26 19 24 21 40 21 186 0 155
-1 159 -25 183 -21 22 -33 25 -90 25 l-65 0 0 -210z m115 0 l0 -155 -27 -3
-28 -3 0 161 0 161 28 -3 27 -3 0 -155z"/>
<path d="M2005 1415 c-24 -24 -25 -28 -25 -184 0 -153 1 -161 23 -187 18 -20
33 -27 65 -28 54 -1 84 27 86 81 1 34 -2 38 -26 41 -24 3 -27 -1 -30 -30 -2
-28 -7 -33 -28 -33 l-25 0 0 155 0 155 25 0 c20 0 26 -6 28 -27 3 -24 8 -28
33 -28 26 0 29 3 29 30 0 46 -39 80 -90 80 -30 0 -47 -6 -65 -25z"/>
</g>
</svg>
